HIERARCHY
ROOT hip
{
	OFFSET 0.000000 0.000000 0.000000
	CHANNELS 6 Xposition Yposition Zposition Xrotation Zrotation Yrotation 
	JOINT abdomen
	{
		OFFSET 0.000000 3.422050 0.000000
		CHANNELS 3 Xrotation Zrotation Yrotation 
		JOINT chest
		{
			OFFSET 0.000000 8.486693 -0.684411
			CHANNELS 3 Xrotation Zrotation Yrotation 
			JOINT neck
			{
				OFFSET 0.000000 10.266162 -0.273764
				CHANNELS 3 Xrotation Zrotation Yrotation 
				JOINT head
				{
					OFFSET 0.000000 3.148285 0.000000
					CHANNELS 3 Xrotation Zrotation Yrotation 
					End Site
					{
						OFFSET 0.000000 3.148289 0.000000
					}
				}
			}
			JOINT lCollar
			{
				OFFSET 3.422053 6.707223 -0.821293
				CHANNELS 3 Yrotation Zrotation Xrotation 
				JOINT lShldr
				{
					OFFSET 3.285171 0.000000 0.000000
					CHANNELS 3 Zrotation Yrotation Xrotation 
					JOINT lForeArm
					{
						OFFSET 10.129278 0.000000 0.000000
						CHANNELS 3 Yrotation Zrotation Xrotation 
						JOINT lHand
						{
							OFFSET 8.486692 0.000000 0.000000
							CHANNELS 3 Zrotation Yrotation Xrotation 
							End Site
							{
								OFFSET 4.106464 0.000000 0.000000
							}
						}
					}
				}
			}
			JOINT rCollar
			{
				OFFSET -3.558935 6.707223 -0.821293
				CHANNELS 3 Yrotation Zrotation Xrotation 
				JOINT rShldr
				{
					OFFSET -3.148289 0.000000 0.000000
					CHANNELS 3 Zrotation Yrotation Xrotation 
					JOINT rForeArm
					{
						OFFSET -10.266159 0.000000 0.000000
						CHANNELS 3 Yrotation Zrotation Xrotation 
						JOINT rHand
						{
							OFFSET -8.349810 0.000000 0.000000
							CHANNELS 3 Zrotation Yrotation Xrotation 
							End Site
							{
								OFFSET -4.106464 0.000000 0.000000
							}
						}
					}
				}
			}
		}
	}
	JOINT lThigh
	{
		OFFSET 5.338403 -1.642589 1.368821
		CHANNELS 3 Xrotation Zrotation Yrotation 
		JOINT lShin
		{
			OFFSET -2.053232 -20.121670 0.000000
			CHANNELS 3 Xrotation Zrotation Yrotation 
			JOINT lFoot
			{
				OFFSET 0.000000 -19.300380 -1.231939
				CHANNELS 3 Xrotation Yrotation Zrotation 
				End Site
				{
					OFFSET 0.000000 -2.463878 4.653993
				}
			}
		}
	}
	JOINT rThigh
	{
		OFFSET -5.338403 -1.642589 1.368821
		CHANNELS 3 Xrotation Zrotation Yrotation 
		JOINT rShin
		{
			OFFSET 2.053232 -20.121670 0.000000
			CHANNELS 3 Xrotation Zrotation Yrotation 
			JOINT rFoot
			{
				OFFSET 0.000000 -19.300380 -1.231939
				CHANNELS 3 Xrotation Yrotation Zrotation 
				End Site
				{
					OFFSET 0.000000 -2.463878 4.653993
				}
			}
		}
	}
}
MOTION
Frames: 18
Frame Time: 0.033264
0.000000 43.528500 0.000000 0.000000 0.000000 0.000000 0.000000 0.000000 0.000000 0.000000 0.000000 0.000000 0.000000 0.000000 0.000000 0.000000 0.000000 0.000000 0.000000 0.000000 0.000000 0.000000 0.000000 0.000000 0.000000 0.000000 0.000000 0.000000 0.000000 0.000000 0.000000 0.000000 0.000000 0.000000 0.000000 0.000000 0.000000 0.000000 0.000000 0.000000 0.000000 0.000000 0.000000 0.000000 0.000000 0.000000 0.000000 0.000000 0.000000 0.000000 0.000000 0.000000 0.000000 0.000000 0.000000 0.000000 0.000000 0.000000 0.000000 0.000000 
19.995884 22.721600 11.561401 121.013481 -0.002582 179.995438 9.658217 0.000000 0.000000 30.567774 -0.001616 -0.451793 13.997003 0.000000 0.000000 0.120648 0.000000 0.000000 -2.005462 -17.419102 -1.830587 -43.184116 1.848242 55.086018 -15.360940 1.690323 35.937527 1.810617 -1.332397 -5.306334 1.268978 10.960812 -2.147330 51.861797 -1.774240 54.952888 19.295292 0.145482 35.990192 -0.925085 -4.776678 -3.215348 -77.842316 16.374403 31.058847 31.785191 1.258949 -41.681080 -3.116739 4.550874 18.121986 -77.838211 -16.404068 -31.069094 31.796820 -1.255620 41.667580 -3.135879 -4.554537 -18.140680 
19.995884 22.721600 11.561401 121.005341 -0.002582 179.995438 9.213949 0.000000 0.000000 31.619389 -0.001580 -0.451865 13.880343 0.000000 0.000000 0.120346 0.000000 0.000000 -2.274860 -16.767118 -2.220750 -43.665394 1.833120 55.078293 -15.360940 1.690323 35.937527 1.936797 -1.153826 -5.584984 1.518678 10.380953 -2.582270 52.278625 -1.768466 54.950745 19.295292 0.145482 35.990192 -1.006545 -4.939493 -3.489986 -77.878731 16.206022 31.052765 31.785191 1.258949 -41.681080 -3.154815 4.626255 18.313454 -77.887390 -16.126757 -31.061672 31.796820 -1.255620 41.667580 -3.183411 -4.674509 -18.443441 
19.995884 22.721600 11.561401 121.005341 -0.002582 179.995438 8.769572 0.000000 0.000000 32.672440 -0.001542 -0.451936 13.763659 0.000000 0.000000 0.120044 0.000000 0.000000 -2.538914 -16.112940 -2.606684 -44.146805 1.817934 55.070702 -15.360940 1.690323 35.937534 2.062119 -0.974617 -5.863265 1.763615 9.798862 -3.014145 52.695545 -1.762672 54.948650 19.295294 0.145482 35.990196 -1.087251 -5.102717 -3.764498 -77.915070 16.037621 31.046782 31.785191 1.258948 -41.681084 -3.193149 4.701511 18.504999 -77.936485 -15.849411 -31.054504 31.796820 -1.255620 41.667580 -3.231593 -4.794244 -18.746391 
19.995884 22.721600 11.561401 121.005341 -0.002582 179.995438 8.325104 0.000000 0.000000 33.726742 -0.001503 -0.452006 13.646958 0.000000 0.000000 0.119741 0.000000 0.000000 -2.797698 -15.456658 -2.988479 -44.628315 1.802676 55.063229 -15.360942 1.690323 35.937527 2.186580 -0.794779 -6.141176 2.003824 9.214636 -3.443010 53.112553 -1.756863 54.946598 19.295292 0.145481 35.990200 -1.167201 -5.266344 -4.038881 -77.951370 15.869212 31.040915 31.785191 1.258950 -41.681087 -3.231741 4.776643 18.696625 -77.985466 -15.572041 -31.047596 31.796820 -1.255620 41.667580 -3.280424 -4.913737 -19.049532 
19.995884 22.721600 11.561401 121.005341 -0.002582 179.995438 7.880555 0.000000 0.000000 34.782112 -0.001462 -0.452076 13.530235 0.000000 0.000000 0.119439 0.000000 0.000000 -3.051290 -14.798392 -3.366226 -45.109932 1.787355 55.055882 -15.360940 1.690324 35.937523 2.310176 -0.614319 -6.418718 2.239335 8.628367 -3.868922 53.529617 -1.751040 54.944588 19.295290 0.145481 35.990192 -1.246393 -5.430366 -4.313136 -77.987640 15.700797 31.035172 31.785191 1.258949 -41.681080 -3.270592 4.851650 18.888334 -78.034348 -15.294636 -31.040930 31.796820 -1.255620 41.667580 -3.329903 -5.032981 -19.352859 
19.995884 22.721600 11.561401 121.005341 -0.002582 179.995438 7.435944 0.000000 0.000000 35.838390 -0.001421 -0.452145 13.413491 0.000000 0.000000 0.119137 0.000000 0.000000 -3.299758 -14.138234 -3.740013 -45.591618 1.771970 55.048656 -15.360940 1.690323 35.937527 2.432904 -0.433245 -6.695889 2.470181 8.040140 -4.291933 53.946743 -1.745202 54.942631 19.295290 0.145482 35.990192 -1.324824 -5.594779 -4.587264 -78.023849 15.532376 31.029539 31.785183 1.258949 -41.681080 -3.309699 4.926528 19.080114 -78.083138 -15.017216 -31.034525 31.796820 -1.255620 41.667580 -3.380028 -5.151975 -19.656372 
19.995884 22.721600 11.561401 121.005341 -0.002582 179.995438 6.991272 0.000000 0.000000 36.895386 -0.001378 -0.452213 13.296725 0.000000 0.000000 0.118834 0.000000 0.000000 -3.543178 -13.476294 -4.109927 -46.073372 1.756525 55.041573 -15.360940 1.690323 35.937527 2.554761 -0.251567 -6.972684 2.696393 7.450052 -4.712100 54.363899 -1.739350 54.940697 19.295292 0.145482 35.990192 -1.402491 -5.759574 -4.861262 -78.060005 15.363947 31.024027 31.785191 1.258949 -41.681080 -3.349064 5.001280 19.271984 -78.131828 -14.739770 -31.028368 31.796820 -1.255620 41.667580 -3.430798 -5.270708 -19.960064 
19.995884 22.721600 11.561401 121.005341 -0.002582 179.995438 6.546564 0.000000 0.000000 37.952911 -0.001333 -0.452280 13.179940 0.000000 0.000000 0.118532 0.000000 0.000000 -3.781616 -12.812669 -4.476054 -46.555176 1.741013 55.034615 -15.360940 1.690323 35.937527 2.675746 -0.069292 -7.249108 2.918003 6.858193 -5.129478 54.781097 -1.733482 54.938820 19.295292 0.145482 35.990192 -1.479391 -5.924746 -5.135129 -78.096115 15.195508 31.018618 31.785191 1.258949 -41.681080 -3.388685 5.075898 19.463921 -78.180443 -14.462317 -31.022470 31.796820 -1.255620 41.667580 -3.482211 -5.389177 -20.263933 
19.995884 22.721600 11.561401 121.005341 -0.002582 179.995438 6.101829 0.000000 0.000000 39.010818 -0.001288 -0.452347 13.063135 0.000000 0.000000 0.118229 0.000000 0.000000 -4.015142 -12.147458 -4.838480 -47.037010 1.725446 55.027794 -15.360940 1.690323 35.937527 2.795854 0.113571 -7.525155 3.135043 6.264653 -5.544124 55.198299 -1.727599 54.936966 19.295292 0.145481 35.990192 -1.555522 -6.090286 -5.408865 -78.132187 15.027067 31.013329 31.785191 1.258949 -41.681080 -3.428561 5.150386 19.655935 -78.228958 -14.184852 -31.016821 31.796820 -1.255620 41.667580 -3.534268 -5.507378 -20.567984 
19.995884 22.721600 11.561401 121.005341 -0.002582 179.995438 5.657079 0.000000 0.000000 40.068878 -0.001241 -0.452413 12.946311 0.000000 0.000000 0.117927 0.000000 0.000000 -4.243824 -11.480765 -5.197288 -47.518848 1.709824 55.021091 -15.360940 1.690324 35.937527 2.915084 0.297014 -7.800829 3.347543 5.669524 -5.956092 55.615528 -1.721703 54.935173 19.295292 0.145481 35.990192 -1.630883 -6.256191 -5.682472 -78.168221 14.858626 31.008158 31.785191 1.258949 -41.681080 -3.468693 5.224741 19.848032 -78.277405 -13.907379 -31.011425 31.796820 -1.255620 41.667580 -3.586965 -5.625303 -20.872206 
19.995884 22.721600 11.561401 121.005341 -0.002582 179.995438 5.212329 0.000000 0.000000 41.126961 -0.001193 -0.452477 12.829468 0.000000 0.000000 0.117625 0.000000 0.000000 -4.467725 -10.812691 -5.552561 -48.000687 1.694144 55.014530 -15.360940 1.690324 35.937523 3.033432 0.481027 -8.076125 3.555534 5.072894 -6.365439 56.032749 -1.715797 54.933411 19.295290 0.145481 35.990192 -1.705469 -6.422451 -5.955946 -78.204216 14.690184 31.003099 31.785191 1.258949 -41.681080 -3.509080 5.298961 20.040195 -78.325737 -13.629896 -31.006262 31.796820 -1.255620 41.667580 -3.640301 -5.742949 -21.176598 
19.995884 22.721600 11.561401 121.005341 -0.002582 179.995438 4.767593 0.000000 0.000000 42.184864 -0.001144 -0.452542 12.712601 0.000000 0.000000 0.117322 0.000000 0.000000 -4.686913 -10.143335 -5.904383 -48.482494 1.678409 55.008095 -15.360940 1.690323 35.937527 3.150896 0.665604 -8.351046 3.759046 4.474856 -6.772220 56.449959 -1.709872 54.931709 19.295292 0.145482 35.990192 -1.779280 -6.589058 -6.229288 -78.240143 14.521730 30.998148 31.785183 1.258949 -41.681080 -3.549721 5.373044 20.232435 -78.374008 -13.352416 -31.001354 31.796820 -1.255621 41.667580 -3.694275 -5.860308 -21.481159 
19.995884 22.721600 11.561401 121.005341 -0.002582 179.995438 4.322884 0.000000 0.000000 43.242393 -0.001094 -0.452605 12.595721 0.000000 0.000000 0.117020 0.000000 0.000000 -4.901450 -9.472797 -6.252834 -48.964264 1.662620 55.001797 -15.360940 1.690323 35.937527 3.267473 0.850734 -8.625585 3.958110 3.875496 -7.176493 56.867142 -1.703938 54.930031 19.295292 0.145482 35.990192 -1.852311 -6.756009 -6.502498 -78.276054 14.353281 30.993315 31.785191 1.258949 -41.681080 -3.590616 5.446992 20.424753 -78.422195 -13.074939 -30.996696 31.796820 -1.255620 41.667580 -3.748886 -5.977377 -21.785889 
19.995884 22.721600 11.561401 121.005341 -0.002582 179.995438 3.878216 0.000000 0.000000 44.299389 -0.001042 -0.452667 12.478818 0.000000 0.000000 0.116718 0.000000 0.000000 -5.111393 -8.801170 -6.597990 -49.445972 1.646783 54.995621 -15.360940 1.690323 35.937527 3.383162 1.036410 -8.899751 4.152755 3.274908 -7.578311 57.284306 -1.697999 54.928421 19.295292 0.145482 35.990192 -1.924562 -6.923295 -6.775573 -78.311920 14.184831 30.988592 31.785191 1.258949 -41.681080 -3.631765 5.520802 20.617146 -78.470299 -12.797468 -30.992277 31.796820 -1.255620 41.667580 -3.804131 -6.094150 -22.090778 
19.995884 22.721600 11.561401 121.005341 -0.002582 179.995438 3.433600 0.000000 0.000000 45.355648 -0.000990 -0.452728 12.361897 0.000000 0.000000 0.116415 0.000000 0.000000 -5.316808 -8.128556 -6.939936 -49.927628 1.630898 54.989601 -15.360942 1.690324 35.937531 3.497960 1.222623 -9.173536 4.343008 2.673177 -7.977732 57.701397 -1.692043 54.926826 19.295292 0.145481 35.990196 -1.996029 -7.090909 -7.048516 -78.347725 14.016380 30.983986 31.785194 1.258950 -41.681080 -3.673167 5.594470 20.809603 -78.518349 -12.520010 -30.988108 31.796820 -1.255620 41.667580 -3.860008 -6.210620 -22.395826 
19.995884 22.721600 11.561401 121.005341 -0.002582 179.995438 2.989052 0.000000 0.000000 46.411037 -0.000936 -0.452788 12.244956 0.000000 0.000000 0.116113 0.000000 0.000000 -5.517753 -7.455053 -7.278746 -50.409176 1.614964 54.983707 -15.360940 1.690323 35.937527 3.611863 1.409364 -9.446939 4.528900 2.070392 -8.374812 58.118443 -1.686080 54.925293 19.295292 0.145482 35.990196 -2.066711 -7.258845 -7.321325 -78.383507 13.847927 30.979481 31.785191 1.258949 -41.681080 -3.714820 5.667997 21.002134 -78.566292 -12.242560 -30.984173 31.796820 -1.255620 41.667580 -3.916517 -6.326785 -22.701038 
19.995884 22.721600 11.561401 121.005341 -0.002582 179.995438 2.544583 0.000000 0.000000 47.465332 -0.000882 -0.452847 12.127998 0.000000 0.000000 0.115810 0.000000 0.000000 -5.714282 -6.780750 -7.614496 -50.890617 1.598986 54.977936 -15.360940 1.690323 35.937527 3.724873 1.596625 -9.719968 4.710458 1.466642 -8.769608 58.535431 -1.680102 54.923798 19.295290 0.145482 35.990189 -2.136606 -7.427095 -7.594001 -78.419250 13.679483 30.975100 31.785187 1.258950 -41.681080 -3.756726 5.741382 21.194738 -78.614189 -11.965133 -30.980492 31.796820 -1.255621 41.667580 -3.973654 -6.442636 -23.006401 
